HIERARCHY
ROOT Hips
{
	OFFSET 0.000000 0.000000 0.000000
	CHANNELS 6 Xposition Yposition Zposition Zrotation Yrotation Xrotation 
	JOINT LHipJoint
	{
		OFFSET 0.000000 0.000000 0.000000
		CHANNELS 3 Zrotation Yrotation Xrotation
		JOINT LeftUpLeg
		{
			OFFSET 1.363060 -1.794630 0.839290
			CHANNELS 3 Zrotation Yrotation Xrotation
			JOINT LeftLeg
			{
				OFFSET 2.448110 -6.726130 0.000000
				CHANNELS 3 Zrotation Yrotation Xrotation
				JOINT LeftFoot
				{
					OFFSET 2.562200 -7.039590 0.000000
					CHANNELS 3 Zrotation Yrotation Xrotation
					JOINT LeftToeBase
					{
						OFFSET 0.157640 -0.433110 2.322550
						CHANNELS 3 Zrotation Yrotation Xrotation
						End Site
						{
							OFFSET 0.000000 0.000000 0.000000
						}
					}
				}
			}
		}
	}
	JOINT RHipJoint
	{
		OFFSET 0.000000 0.000000 0.000000
		CHANNELS 3 Zrotation Yrotation Xrotation
		JOINT RightUpLeg
		{
			OFFSET -1.305520 -1.794630 0.839290
			CHANNELS 3 Zrotation Yrotation Xrotation
			JOINT RightLeg
			{
				OFFSET -2.542530 -6.985550 0.000000
				CHANNELS 3 Zrotation Yrotation Xrotation
				JOINT RightFoot
				{
					OFFSET -2.568260 -7.056230 0.000000
					CHANNELS 3 Zrotation Yrotation Xrotation
					JOINT RightToeBase
					{
						OFFSET -0.164730 -0.452590 2.363150
						CHANNELS 3 Zrotation Yrotation Xrotation
						End Site
						{
							OFFSET 0.000000 0.000000 0.000000
						}
					}
				}
			}
		}
	}
	JOINT LowerBack
	{
		OFFSET 0.000000 0.000000 0.000000
		CHANNELS 3 Zrotation Yrotation Xrotation
		JOINT Spine
		{
			OFFSET 0.028270 2.035590 -0.193380
			CHANNELS 3 Zrotation Yrotation Xrotation
			JOINT Spine1
			{
				OFFSET 0.056720 2.048850 -0.042750
				CHANNELS 3 Zrotation Yrotation Xrotation
				JOINT Neck
				{
					OFFSET 0.000000 0.000000 0.000000
					CHANNELS 3 Zrotation Yrotation Xrotation
					JOINT Neck1
					{
						OFFSET -0.054170 1.746240 0.172020
						CHANNELS 3 Zrotation Yrotation Xrotation
						JOINT Head
						{
							OFFSET 0.104070 1.761360 -0.123970
							CHANNELS 3 Zrotation Yrotation Xrotation
							End Site
							{
								OFFSET 0.000000 0.000000 0.000000
							}
						}
					}
				}
				JOINT LeftShoulder
				{
					OFFSET 0.000000 0.000000 0.000000
					CHANNELS 3 Zrotation Yrotation Xrotation
					JOINT LeftArm
					{
						OFFSET 3.362410 1.200890 -0.311210
						CHANNELS 3 Zrotation Yrotation Xrotation
						JOINT LeftForeArm
						{
							OFFSET 4.983000 -0.000000 -0.000000
							CHANNELS 3 Zrotation Yrotation Xrotation
							JOINT LeftHand
							{
								OFFSET 3.483560 -0.000000 -0.000000
								CHANNELS 3 Zrotation Yrotation Xrotation
								JOINT LeftFingerBase
								{
									OFFSET 0.000000 0.000000 0.000000
									CHANNELS 3 Zrotation Yrotation Xrotation
									JOINT LeftHandIndex1
									{
										OFFSET 0.715260 -0.000000 -0.000000
										CHANNELS 3 Zrotation Yrotation Xrotation
										End Site
										{
											OFFSET 0.000000 0.000000 0.000000
										}
									}
								}
								JOINT LThumb
								{
									OFFSET 0.000000 0.000000 0.000000
									CHANNELS 3 Zrotation Yrotation Xrotation
									End Site
									{
										OFFSET 0.000000 0.000000 0.000000
									}
								}
							}
						}
					}
				}
				JOINT RightShoulder
				{
					OFFSET 0.000000 0.000000 0.000000
					CHANNELS 3 Zrotation Yrotation Xrotation
					JOINT RightArm
					{
						OFFSET -3.136600 1.374050 -0.404650
						CHANNELS 3 Zrotation Yrotation Xrotation
						JOINT RightForeArm
						{
							OFFSET -5.241900 -0.000000 -0.000000
							CHANNELS 3 Zrotation Yrotation Xrotation
							JOINT RightHand
							{
								OFFSET -3.444170 -0.000000 -0.000000
								CHANNELS 3 Zrotation Yrotation Xrotation
								JOINT RightFingerBase
								{
									OFFSET 0.000000 0.000000 0.000000
									CHANNELS 3 Zrotation Yrotation Xrotation
									JOINT RightHandIndex1
									{
										OFFSET -0.622530 -0.000000 -0.000000
										CHANNELS 3 Zrotation Yrotation Xrotation
										End Site
										{
											OFFSET 0.000000 0.000000 0.000000
										}
									}
								}
								JOINT RThumb
								{
									OFFSET 0.000000 0.000000 0.000000
									CHANNELS 3 Zrotation Yrotation Xrotation
									End Site
									{
										OFFSET 0.000000 0.000000 0.000000
									}
								}
							}
						}
					}
				}
			}
		}
	}
}
MOTION
Frames: 11
Frame Time: 0.008333
7.852675 17.516214 -20.490447 -1.206202 5.364664 22.008588 -3.421755 0.308135 0.970388 -10.193308 -10.484287 -31.007028 4.731864 13.523013 41.557227 0.554964 -23.266763 -2.313370 0.126800 2.295500 6.323000 -0.094982 -0.952290 2.536897 -14.281449 23.020826 -90.475757 -18.950395 -19.825159 86.166091 0.596155 25.633882 4.441536 -0.172100 2.672300 -7.367700 -1.239752 5.607110 22.694403 2.632706 6.820931 18.626152 0.874187 3.771166 -5.462725 -7.316602 -10.057501 -27.483072 13.171628 -10.841530 18.825874 1.503300 -3.138700 13.586000 1.722047 -10.538120 0.206273 -82.166820 -13.001674 32.970964 27.553229 -29.515493 -8.459491 -0.207787 -0.730728 -16.984847 23.269889 6.744592 3.241100 -7.125000 0.000000 0.000000 -2.680600 38.058400 0.458600 -0.382930 15.749989 0.850817 32.871470 45.913511 -2.420393 -16.112541 12.602981 -3.672335 2.564056 -1.939945 12.539891 -29.828422 -13.097316 7.142100 7.125000 0.000000 0.000000 -5.174000 -43.192100 -0.231500 
7.844905 17.421800 -20.270731 -0.906845 5.707234 21.577686 -3.411254 0.349444 1.013026 -10.431062 -10.908120 -30.445793 5.207860 13.947501 43.269436 0.516993 -23.976729 -3.064707 0.078600 1.808000 4.975300 -0.110732 -0.960488 2.494500 -14.179370 23.373282 -89.251183 -18.478673 -19.774310 84.776243 0.446021 24.706686 3.834514 -0.182700 2.753200 -7.592400 -1.471974 5.511565 22.509804 2.553473 6.658746 18.486416 1.056587 3.675060 -5.461058 -6.885300 -9.925135 -27.350764 12.675496 -10.818922 19.496631 1.287700 -3.099300 13.786100 1.724511 -10.501755 0.204210 -81.711107 -13.185096 32.881262 27.412460 -29.361955 -8.360705 -0.217357 -0.710243 -17.091983 23.364428 6.586739 3.176800 -7.125000 0.000000 0.000000 -2.580200 37.866900 0.453500 -0.353242 15.685763 0.917884 33.294089 45.671919 -1.751742 -16.408595 12.927273 -3.800879 2.604414 -1.898223 11.705069 -30.565126 -13.204564 7.402800 7.125000 0.000000 0.000000 -5.864100 -43.388200 -0.234100 
7.837717 17.322821 -20.047226 -0.638644 6.092220 21.100105 -3.403637 0.394117 1.059001 -10.644038 -11.366583 -29.751506 5.676852 14.341501 44.915950 0.476489 -24.725571 -3.813487 0.043100 1.340200 3.685500 -0.123031 -0.969187 2.452428 -14.020905 23.734043 -87.964667 -18.028510 -19.712903 83.440260 0.291126 23.763152 2.930188 -0.205000 2.915000 -8.042100 -1.664319 5.404993 22.331604 2.509734 6.490516 18.340931 1.242354 3.575167 -5.458725 -6.482615 -9.813847 -27.257741 12.209067 -10.810195 20.173539 1.085300 -3.062600 14.004400 1.726082 -10.461189 0.202196 -81.236624 -13.428959 32.752025 27.309455 -29.245486 -8.285178 -0.223399 -0.685545 -17.085878 23.446835 6.358590 3.077500 -7.125000 0.000000 0.000000 -2.489900 37.595100 0.454200 -0.324218 15.619916 0.993898 33.722670 45.376055 -1.026800 -16.716266 13.277006 -3.930730 2.635550 -1.851491 10.879484 -31.280099 -13.271415 7.638400 7.125000 0.000000 0.000000 -6.529000 -43.542300 -0.236000 
7.830432 17.219568 -19.820419 -0.417152 6.514702 20.583750 -3.397735 0.441047 1.107815 -10.814611 -11.834081 -28.938889 6.131429 14.704209 46.483169 0.425675 -25.509565 -4.472089 0.020900 0.934100 2.567400 -0.132457 -0.978034 2.410737 -13.823686 24.115723 -86.650355 -17.596308 -19.642384 82.149356 0.132842 22.779212 1.840139 -0.237000 3.132800 -8.648700 -1.811189 5.290662 22.157441 2.501586 6.321236 18.192091 1.427977 3.474109 -5.453931 -6.126746 -9.721323 -27.191779 11.806225 -10.811387 20.822926 0.912200 -3.027400 14.226700 1.729439 -10.417419 0.201763 -80.730275 -13.732701 32.574436 27.274450 -29.199027 -8.251469 -0.227555 -0.660061 -17.001898 23.567322 6.136517 2.985200 -7.125000 0.000000 0.000000 -2.371100 37.332500 0.447700 -0.297080 15.552748 1.076077 34.159667 45.037634 -0.282006 -17.034903 13.647639 -4.058670 2.655927 -1.800577 10.117054 -31.921647 -13.314660 7.845600 7.125000 0.000000 0.000000 -7.119500 -43.671000 -0.234800 
7.822758 17.111555 -19.590115 -0.244726 6.961305 20.042625 -3.393819 0.488687 1.159489 -10.938716 -12.281284 -28.009722 6.564216 15.035660 47.961790 0.344915 -26.369034 -4.896739 0.010500 0.661500 1.818000 -0.139774 -0.987799 2.369377 -13.618237 24.524030 -85.356494 -17.182434 -19.564189 80.905620 -0.026641 21.747609 0.630837 -0.282700 3.419800 -9.449800 -1.921076 5.178666 21.967930 2.530580 6.160331 18.047043 1.615259 3.378292 -5.432805 -5.780124 -9.645516 -27.137400 11.373910 -10.822282 21.389692 0.719200 -3.008000 14.417100 1.738880 -10.379850 0.205335 -80.185302 -14.104848 32.345157 27.334894 -29.252869 -8.276768 -0.229829 -0.634490 -16.895632 23.762955 5.910851 2.900300 -7.125000 0.000000 0.000000 -2.191300 37.070900 0.427700 -0.272942 15.479271 1.155726 34.552603 44.652147 0.460773 -17.354385 14.034607 -4.181118 2.669110 -1.740739 9.379443 -32.459913 -13.358222 8.034100 7.125000 0.000000 0.000000 -7.609000 -43.804200 -0.225900 
7.814113 16.999074 -19.356120 -0.120279 7.416531 19.488237 -3.391031 0.536200 1.214184 -11.017042 -12.668881 -26.991731 6.968950 15.336988 49.342579 0.223971 -27.286233 -5.011177 0.006700 0.528700 1.452800 -0.145781 -0.997329 2.327961 -13.424482 24.963823 -84.114712 -16.784680 -19.479910 79.705992 -0.180533 20.636748 -0.541226 -0.334600 3.717300 -10.282700 -1.991280 5.066745 21.757079 2.571711 6.007759 17.907633 1.791496 3.286051 -5.388363 -5.472570 -9.592591 -27.106022 10.993736 -10.851065 21.878466 0.544700 -2.998800 14.585800 1.756951 -10.345475 0.215473 -79.566699 -14.553861 32.057300 27.510455 -29.426854 -8.373114 -0.229878 -0.609365 -16.848127 24.047552 5.671732 2.819400 -7.125000 0.000000 0.000000 -1.938100 36.800000 0.391100 -0.254040 15.406001 1.230436 34.889920 44.234495 1.210780 -17.669706 14.429279 -4.296375 2.676242 -1.673088 8.605208 -32.893777 -13.377776 8.183400 7.125000 0.000000 0.000000 -7.995400 -43.908100 -0.216900 
7.804109 16.882514 -19.118240 -0.030610 7.867861 18.936481 -3.389031 0.582179 1.271561 -11.056137 -12.971701 -25.910532 7.342319 15.610478 50.624799 0.051144 -28.261048 -4.745773 0.007800 0.570300 1.567100 -0.151127 -1.006945 2.286693 -13.271578 25.428879 -82.961065 -16.406653 -19.391174 78.561212 -0.324225 19.449256 -1.651956 -0.395900 4.040000 -11.189300 -2.040038 4.961356 21.514403 2.613644 5.867304 17.772154 1.959861 3.199638 -5.320085 -5.211219 -9.563168 -27.080361 10.674609 -10.899271 22.276021 0.392900 -3.001700 14.722900 1.786272 -10.313195 0.233046 -78.863055 -15.066461 31.709399 27.842966 -29.763706 -8.567847 -0.226031 -0.587579 -16.926535 24.418654 5.435137 2.749200 -7.125000 0.000000 0.000000 -1.615600 36.539800 0.336200 -0.240585 15.331282 1.298361 35.158427 43.782321 1.983608 -17.982326 14.835366 -4.407368 2.682795 -1.592800 7.715589 -33.242744 -13.395357 8.314800 7.125000 0.000000 0.000000 -8.299900 -44.012200 -0.203800 
7.792064 16.763817 -18.876183 0.048476 8.299995 18.405942 -3.387409 0.624266 1.330014 -11.066742 -13.180751 -24.817299 7.683572 15.858356 51.811078 -0.167669 -29.221342 -4.098781 0.013300 0.743800 2.044000 -0.156451 -1.016991 2.246235 -13.199021 25.909415 -81.920328 -16.049718 -19.300354 77.479031 -0.445009 18.199842 -2.549119 -0.457200 4.337600 -12.028400 -2.099278 4.864727 21.223643 2.641492 5.734989 17.640336 2.131573 3.116763 -5.223694 -5.012415 -9.554426 -27.051022 10.442189 -10.961895 22.581879 0.279000 -3.012900 14.827400 1.828499 -10.282125 0.259308 -78.060448 -15.636791 31.278047 28.351621 -30.278017 -8.874705 -0.216455 -0.569886 -17.178205 24.849603 5.183101 2.677400 -7.125000 0.000000 0.000000 -1.246900 36.269700 0.267700 -0.233296 15.257105 1.356174 35.332696 43.301218 2.810147 -18.291987 15.253642 -4.516397 2.691603 -1.498407 6.641445 -33.538211 -13.405079 8.431600 7.125000 0.000000 0.000000 -8.553300 -44.110500 -0.189200 
7.777105 16.642011 -18.628783 0.128339 8.706892 17.900870 -3.384951 0.662733 1.390070 -11.056633 -13.261174 -23.735545 7.997613 16.085334 52.913408 -0.410885 -30.118606 -3.212291 0.021300 0.942700 2.591200 -0.163059 -1.027549 2.206398 -13.215211 26.399409 -80.970765 -15.728459 -19.212308 76.504378 -0.530856 17.048970 -3.174528 -0.496700 4.518500 -12.540300 -2.171881 4.780412 20.889012 2.627608 5.616452 17.509902 2.293610 3.038932 -5.100971 -4.876176 -9.572703 -27.015441 10.338719 -11.056476 22.802043 0.219400 -3.033300 14.903400 1.885120 -10.247455 0.295128 -77.116109 -16.271965 30.777478 29.051988 -30.976098 -9.307001 -0.199900 -0.556948 -17.617856 25.303040 4.928918 2.605400 -7.125000 0.000000 0.000000 -0.865400 36.003500 0.191400 -0.231494 15.182527 1.407385 35.438247 42.786464 3.698739 -18.610186 15.695286 -4.630333 2.701761 -1.391747 5.320890 -33.833835 -13.367877 8.517600 7.125000 0.000000 0.000000 -8.803600 -44.156100 -0.184900 
7.758747 16.516223 -18.375847 0.231149 9.097104 17.431612 -3.381130 0.696798 1.450831 -11.035596 -13.217537 -22.691627 8.287762 16.294453 53.941859 -0.664451 -30.913383 -2.133076 0.032400 1.162000 3.194600 -0.170702 -1.039440 2.168681 -13.329078 26.860429 -80.114214 -15.456432 -19.133900 75.680945 -0.575399 16.133564 -3.420540 -0.492900 4.501200 -12.491300 -2.286066 4.705763 20.510901 2.574816 5.502324 17.380166 2.464436 2.961205 -4.956821 -4.835808 -9.619773 -26.970746 10.402569 -11.178758 22.952878 0.237800 -3.058200 14.961700 1.954606 -10.206757 0.340493 -76.025730 -16.984280 30.192619 29.941868 -31.841406 -9.867841 -0.177642 -0.549989 -18.207592 25.761519 4.735830 2.562400 -7.125000 0.000000 0.000000 -0.487400 35.811300 0.110100 -0.235856 15.110735 1.451968 35.454428 42.233164 4.668003 -18.945525 16.171218 -4.753067 2.712038 -1.271899 3.767727 -34.132062 -13.294426 8.581500 7.125000 0.000000 0.000000 -9.053500 -44.163500 -0.188500 
7.736795 16.387715 -18.116889 0.365780 9.470545 17.011996 -3.375837 0.727114 1.511225 -11.004748 -13.050409 -21.702808 8.554465 16.486738 54.894691 -0.911021 -31.590498 -0.961331 0.044600 1.362300 3.746300 -0.180388 -1.052791 2.134323 -13.532623 27.258962 -79.385664 -15.260368 -19.074089 75.088804 -0.587883 15.588979 -3.382877 -0.448000 4.294300 -11.906200 -2.430276 4.641161 20.092365 2.455586 5.398392 17.238356 2.621396 2.885720 -4.799606 -4.879078 -9.700465 -26.907515 10.654938 -11.346647 23.047954 0.339600 -3.089600 15.007300 2.037025 -10.155482 0.395516 -74.750197 -17.782644 29.549909 31.023050 -32.858957 -10.565604 -0.150925 -0.547328 -18.896582 26.233922 4.624005 2.560800 -7.125000 0.000000 0.000000 -0.104600 35.715400 0.023900 -0.244428 15.039633 1.494610 35.403262 41.628389 5.698584 -19.309600 16.693234 -4.888485 2.717287 -1.142245 2.041799 -34.424232 -13.175603 8.613300 7.125000 0.000000 0.000000 -9.291500 -44.120700 -0.203500 
